<svg xmlns="http://www.w3.org/2000/svg" viewBox="0 0 1200 800" preserveAspectRatio="xMidYMid slice" width="1200" height="800" role="img" aria-hidden="true">
  <defs>
    <radialGradient id="m-bg" cx="45%" cy="30%" r="75%">
      <stop offset="0%" stop-color="#06203a"/>
      <stop offset="60%" stop-color="#030814"/>
      <stop offset="100%" stop-color="#01040a"/>
    </radialGradient>
  </defs>
  <rect width="1200" height="800" fill="url(#m-bg)"/>
  <g transform="translate(700 240)" opacity="0.9">
    <path d="M0 200a160 160 0 0 1 320 0Z" fill="none" stroke="#00a8ff" stroke-width="2.5"/>
    <path d="M160 200a100 100 0 0 1 90 55" fill="none" stroke="#6bffa7" stroke-width="3"/>
    <line x1="160" y1="200" x2="238" y2="124" stroke="#31d4ff" stroke-width="3" stroke-linecap="round"/>
    <circle cx="160" cy="200" r="7" fill="#fff"/>
    <text x="160" y="262" text-anchor="middle" fill="#dff6ff" font-family="monospace" font-size="22">84%</text>
  </g>
  <polyline points="120,520 220,500 320,515 420,470 520,480 620,430 720,445 820,400 920,410 1020,360" fill="none" stroke="#31d4ff" stroke-width="3" stroke-linecap="round" opacity="0.7"/>
  <polyline points="120,620 220,610 320,618 420,580 520,590 620,545 720,560 820,510 920,520 1020,470" fill="none" stroke="#00a8ff" stroke-width="2" stroke-linecap="round" opacity="0.4"/>
</svg>